<mxfile host="app.diagrams.net" agent="Mozilla/5.0 (Macintosh; Intel Mac OS X 10_15_7) AppleWebKit/605.1.15 (KHTML, like Gecko) Version/18.3 Safari/605.1.15" version="26.1.0">
  <diagram id="C5RBs43oDa-KdzZeNtuy" name="i68u3h_2b">
    <mxGraphModel dx="1044" dy="569" grid="1" gridSize="10" guides="1" tooltips="1" connect="1" arrows="1" fold="1" page="1" pageScale="1" pageWidth="1169" pageHeight="827" background="#FFFFFF" math="0" shadow="0">
      <root>
        <mxCell id="WIyWlLk6GJQsqaUBKTNV-0" />
        <mxCell id="WIyWlLk6GJQsqaUBKTNV-1" parent="WIyWlLk6GJQsqaUBKTNV-0" />
        <mxCell id="5OVwz712XvVLztq_tDMF-49" value="&lt;b&gt;Gyártók&lt;/b&gt;" style="rounded=0;whiteSpace=wrap;html=1;fillColor=#d5e8d4;strokeColor=#82b366;" vertex="1" parent="WIyWlLk6GJQsqaUBKTNV-1">
          <mxGeometry x="135" y="145" width="120" height="50" as="geometry" />
        </mxCell>
        <mxCell id="5OVwz712XvVLztq_tDMF-50" value="" style="edgeStyle=orthogonalEdgeStyle;rounded=0;orthogonalLoop=1;jettySize=auto;html=1;" edge="1" parent="WIyWlLk6GJQsqaUBKTNV-1" source="5OVwz712XvVLztq_tDMF-51" target="5OVwz712XvVLztq_tDMF-49">
          <mxGeometry relative="1" as="geometry" />
        </mxCell>
        <mxCell id="5OVwz712XvVLztq_tDMF-51" value="&lt;b&gt;T-GY&lt;/b&gt;" style="rhombus;whiteSpace=wrap;html=1;fillColor=#f5f5f5;fontColor=#333333;strokeColor=#666666;" vertex="1" parent="WIyWlLk6GJQsqaUBKTNV-1">
          <mxGeometry x="365" y="130" width="80" height="80" as="geometry" />
        </mxCell>
        <mxCell id="5OVwz712XvVLztq_tDMF-52" style="edgeStyle=orthogonalEdgeStyle;rounded=0;orthogonalLoop=1;jettySize=auto;html=1;entryX=0;entryY=0.5;entryDx=0;entryDy=0;" edge="1" parent="WIyWlLk6GJQsqaUBKTNV-1" source="5OVwz712XvVLztq_tDMF-53" target="5OVwz712XvVLztq_tDMF-74">
          <mxGeometry relative="1" as="geometry" />
        </mxCell>
        <mxCell id="5OVwz712XvVLztq_tDMF-53" value="&lt;b&gt;Termékek&lt;/b&gt;" style="rounded=0;whiteSpace=wrap;html=1;fillColor=#fff2cc;strokeColor=#d6b656;" vertex="1" parent="WIyWlLk6GJQsqaUBKTNV-1">
          <mxGeometry x="545" y="145" width="120" height="50" as="geometry" />
        </mxCell>
        <mxCell id="5OVwz712XvVLztq_tDMF-54" value="" style="endArrow=classic;html=1;rounded=0;exitX=1;exitY=0.5;exitDx=0;exitDy=0;" edge="1" parent="WIyWlLk6GJQsqaUBKTNV-1">
          <mxGeometry width="50" height="50" relative="1" as="geometry">
            <mxPoint x="460" y="169.89" as="sourcePoint" />
            <mxPoint x="540" y="169.89" as="targetPoint" />
          </mxGeometry>
        </mxCell>
        <mxCell id="5OVwz712XvVLztq_tDMF-55" value="" style="endArrow=classic;html=1;rounded=0;entryX=0;entryY=0.5;entryDx=0;entryDy=0;" edge="1" parent="WIyWlLk6GJQsqaUBKTNV-1" source="5OVwz712XvVLztq_tDMF-51" target="5OVwz712XvVLztq_tDMF-53">
          <mxGeometry width="50" height="50" relative="1" as="geometry">
            <mxPoint x="445" y="270" as="sourcePoint" />
            <mxPoint x="495" y="220" as="targetPoint" />
          </mxGeometry>
        </mxCell>
        <mxCell id="5OVwz712XvVLztq_tDMF-56" value="&lt;u&gt;Adószám&lt;/u&gt;" style="ellipse;whiteSpace=wrap;html=1;" vertex="1" parent="WIyWlLk6GJQsqaUBKTNV-1">
          <mxGeometry x="70" y="220" width="70" height="40" as="geometry" />
        </mxCell>
        <mxCell id="5OVwz712XvVLztq_tDMF-57" value="Név" style="ellipse;whiteSpace=wrap;html=1;" vertex="1" parent="WIyWlLk6GJQsqaUBKTNV-1">
          <mxGeometry x="160" y="220" width="70" height="40" as="geometry" />
        </mxCell>
        <mxCell id="5OVwz712XvVLztq_tDMF-58" value="Telephely" style="ellipse;whiteSpace=wrap;html=1;" vertex="1" parent="WIyWlLk6GJQsqaUBKTNV-1">
          <mxGeometry x="250" y="220" width="70" height="40" as="geometry" />
        </mxCell>
        <mxCell id="5OVwz712XvVLztq_tDMF-59" value="" style="endArrow=none;html=1;rounded=0;entryX=0.5;entryY=1;entryDx=0;entryDy=0;exitX=0.5;exitY=0;exitDx=0;exitDy=0;" edge="1" parent="WIyWlLk6GJQsqaUBKTNV-1" source="5OVwz712XvVLztq_tDMF-56" target="5OVwz712XvVLztq_tDMF-49">
          <mxGeometry width="50" height="50" relative="1" as="geometry">
            <mxPoint x="375" y="270" as="sourcePoint" />
            <mxPoint x="425" y="220" as="targetPoint" />
          </mxGeometry>
        </mxCell>
        <mxCell id="5OVwz712XvVLztq_tDMF-60" value="" style="endArrow=none;html=1;rounded=0;entryX=0.5;entryY=1;entryDx=0;entryDy=0;exitX=0.5;exitY=0;exitDx=0;exitDy=0;" edge="1" parent="WIyWlLk6GJQsqaUBKTNV-1" source="5OVwz712XvVLztq_tDMF-58" target="5OVwz712XvVLztq_tDMF-49">
          <mxGeometry width="50" height="50" relative="1" as="geometry">
            <mxPoint x="375" y="270" as="sourcePoint" />
            <mxPoint x="425" y="220" as="targetPoint" />
          </mxGeometry>
        </mxCell>
        <mxCell id="5OVwz712XvVLztq_tDMF-61" value="" style="endArrow=none;html=1;rounded=0;entryX=0.5;entryY=1;entryDx=0;entryDy=0;" edge="1" parent="WIyWlLk6GJQsqaUBKTNV-1" source="5OVwz712XvVLztq_tDMF-57" target="5OVwz712XvVLztq_tDMF-49">
          <mxGeometry width="50" height="50" relative="1" as="geometry">
            <mxPoint x="395" y="280" as="sourcePoint" />
            <mxPoint x="445" y="230" as="targetPoint" />
          </mxGeometry>
        </mxCell>
        <mxCell id="5OVwz712XvVLztq_tDMF-62" value="&lt;u&gt;Tkód&lt;/u&gt;" style="ellipse;whiteSpace=wrap;html=1;" vertex="1" parent="WIyWlLk6GJQsqaUBKTNV-1">
          <mxGeometry x="475" y="220" width="70" height="40" as="geometry" />
        </mxCell>
        <mxCell id="5OVwz712XvVLztq_tDMF-63" value="ear" style="ellipse;whiteSpace=wrap;html=1;" vertex="1" parent="WIyWlLk6GJQsqaUBKTNV-1">
          <mxGeometry x="655" y="220" width="70" height="40" as="geometry" />
        </mxCell>
        <mxCell id="5OVwz712XvVLztq_tDMF-64" value="Név" style="ellipse;whiteSpace=wrap;html=1;" vertex="1" parent="WIyWlLk6GJQsqaUBKTNV-1">
          <mxGeometry x="570" y="220" width="70" height="40" as="geometry" />
        </mxCell>
        <mxCell id="5OVwz712XvVLztq_tDMF-65" value="" style="endArrow=none;html=1;rounded=0;entryX=0.5;entryY=1;entryDx=0;entryDy=0;exitX=0.5;exitY=0;exitDx=0;exitDy=0;" edge="1" parent="WIyWlLk6GJQsqaUBKTNV-1" source="5OVwz712XvVLztq_tDMF-63" target="5OVwz712XvVLztq_tDMF-53">
          <mxGeometry width="50" height="50" relative="1" as="geometry">
            <mxPoint x="375" y="270" as="sourcePoint" />
            <mxPoint x="425" y="220" as="targetPoint" />
          </mxGeometry>
        </mxCell>
        <mxCell id="5OVwz712XvVLztq_tDMF-66" value="" style="endArrow=none;html=1;rounded=0;entryX=0.5;entryY=1;entryDx=0;entryDy=0;exitX=0.5;exitY=0;exitDx=0;exitDy=0;" edge="1" parent="WIyWlLk6GJQsqaUBKTNV-1" source="5OVwz712XvVLztq_tDMF-64" target="5OVwz712XvVLztq_tDMF-53">
          <mxGeometry width="50" height="50" relative="1" as="geometry">
            <mxPoint x="375" y="270" as="sourcePoint" />
            <mxPoint x="425" y="220" as="targetPoint" />
          </mxGeometry>
        </mxCell>
        <mxCell id="5OVwz712XvVLztq_tDMF-67" value="" style="endArrow=none;html=1;rounded=0;entryX=0.5;entryY=1;entryDx=0;entryDy=0;exitX=0.5;exitY=0;exitDx=0;exitDy=0;" edge="1" parent="WIyWlLk6GJQsqaUBKTNV-1" source="5OVwz712XvVLztq_tDMF-62" target="5OVwz712XvVLztq_tDMF-53">
          <mxGeometry width="50" height="50" relative="1" as="geometry">
            <mxPoint x="375" y="270" as="sourcePoint" />
            <mxPoint x="425" y="220" as="targetPoint" />
          </mxGeometry>
        </mxCell>
        <mxCell id="5OVwz712XvVLztq_tDMF-68" value="" style="endArrow=none;html=1;rounded=0;exitX=0.5;exitY=0;exitDx=0;exitDy=0;entryX=0.5;entryY=1;entryDx=0;entryDy=0;" edge="1" parent="WIyWlLk6GJQsqaUBKTNV-1" target="5OVwz712XvVLztq_tDMF-58">
          <mxGeometry width="50" height="50" relative="1" as="geometry">
            <mxPoint x="360" y="280" as="sourcePoint" />
            <mxPoint x="425" y="210" as="targetPoint" />
          </mxGeometry>
        </mxCell>
        <mxCell id="5OVwz712XvVLztq_tDMF-69" value="" style="endArrow=none;html=1;rounded=0;exitX=0.5;exitY=0;exitDx=0;exitDy=0;entryX=0.5;entryY=1;entryDx=0;entryDy=0;" edge="1" parent="WIyWlLk6GJQsqaUBKTNV-1" target="5OVwz712XvVLztq_tDMF-58">
          <mxGeometry width="50" height="50" relative="1" as="geometry">
            <mxPoint x="285" y="280" as="sourcePoint" />
            <mxPoint x="425" y="210" as="targetPoint" />
          </mxGeometry>
        </mxCell>
        <mxCell id="5OVwz712XvVLztq_tDMF-70" value="" style="endArrow=none;html=1;rounded=0;entryX=0.5;entryY=1;entryDx=0;entryDy=0;exitX=0.5;exitY=0;exitDx=0;exitDy=0;" edge="1" parent="WIyWlLk6GJQsqaUBKTNV-1" target="5OVwz712XvVLztq_tDMF-58">
          <mxGeometry width="50" height="50" relative="1" as="geometry">
            <mxPoint x="210" y="280" as="sourcePoint" />
            <mxPoint x="425" y="210" as="targetPoint" />
          </mxGeometry>
        </mxCell>
        <mxCell id="5OVwz712XvVLztq_tDMF-71" value="Város" style="ellipse;whiteSpace=wrap;html=1;" vertex="1" parent="WIyWlLk6GJQsqaUBKTNV-1">
          <mxGeometry x="160" y="280" width="70" height="40" as="geometry" />
        </mxCell>
        <mxCell id="5OVwz712XvVLztq_tDMF-72" value="Utca" style="ellipse;whiteSpace=wrap;html=1;" vertex="1" parent="WIyWlLk6GJQsqaUBKTNV-1">
          <mxGeometry x="250" y="280" width="70" height="40" as="geometry" />
        </mxCell>
        <mxCell id="5OVwz712XvVLztq_tDMF-73" value="&lt;font style=&quot;font-size: 11px;&quot;&gt;Irányítószám&lt;/font&gt;" style="ellipse;whiteSpace=wrap;html=1;" vertex="1" parent="WIyWlLk6GJQsqaUBKTNV-1">
          <mxGeometry x="340" y="280" width="70" height="40" as="geometry" />
        </mxCell>
        <mxCell id="5OVwz712XvVLztq_tDMF-74" value="&lt;b&gt;Alkatrész&lt;/b&gt;" style="rounded=0;whiteSpace=wrap;html=1;fillColor=#e1d5e7;strokeColor=#9673a6;" vertex="1" parent="WIyWlLk6GJQsqaUBKTNV-1">
          <mxGeometry x="800" y="145" width="120" height="50" as="geometry" />
        </mxCell>
        <mxCell id="5OVwz712XvVLztq_tDMF-75" style="edgeStyle=orthogonalEdgeStyle;rounded=0;orthogonalLoop=1;jettySize=auto;html=1;" edge="1" parent="WIyWlLk6GJQsqaUBKTNV-1">
          <mxGeometry relative="1" as="geometry">
            <mxPoint x="680" y="169.89" as="sourcePoint" />
            <mxPoint x="795" y="169.89" as="targetPoint" />
          </mxGeometry>
        </mxCell>
        <mxCell id="5OVwz712XvVLztq_tDMF-76" value="&lt;u&gt;Akód&lt;/u&gt;" style="ellipse;whiteSpace=wrap;html=1;" vertex="1" parent="WIyWlLk6GJQsqaUBKTNV-1">
          <mxGeometry x="780" y="220" width="70" height="40" as="geometry" />
        </mxCell>
        <mxCell id="5OVwz712XvVLztq_tDMF-77" value="Név" style="ellipse;whiteSpace=wrap;html=1;" vertex="1" parent="WIyWlLk6GJQsqaUBKTNV-1">
          <mxGeometry x="870" y="220" width="70" height="40" as="geometry" />
        </mxCell>
        <mxCell id="5OVwz712XvVLztq_tDMF-78" value="" style="endArrow=none;html=1;rounded=0;entryX=0.5;entryY=1;entryDx=0;entryDy=0;exitX=0.5;exitY=0;exitDx=0;exitDy=0;" edge="1" parent="WIyWlLk6GJQsqaUBKTNV-1" source="5OVwz712XvVLztq_tDMF-77" target="5OVwz712XvVLztq_tDMF-74">
          <mxGeometry width="50" height="50" relative="1" as="geometry">
            <mxPoint x="530" y="280" as="sourcePoint" />
            <mxPoint x="580" y="230" as="targetPoint" />
          </mxGeometry>
        </mxCell>
        <mxCell id="5OVwz712XvVLztq_tDMF-79" value="" style="endArrow=none;html=1;rounded=0;entryX=0.5;entryY=1;entryDx=0;entryDy=0;exitX=0.5;exitY=0;exitDx=0;exitDy=0;" edge="1" parent="WIyWlLk6GJQsqaUBKTNV-1" source="5OVwz712XvVLztq_tDMF-76" target="5OVwz712XvVLztq_tDMF-74">
          <mxGeometry width="50" height="50" relative="1" as="geometry">
            <mxPoint x="530" y="280" as="sourcePoint" />
            <mxPoint x="580" y="230" as="targetPoint" />
          </mxGeometry>
        </mxCell>
      </root>
    </mxGraphModel>
  </diagram>
</mxfile>
